<svg width="34" height="34" viewBox="0 0 34 34" fill="none" xmlns="http://www.w3.org/2000/svg">
<rect x="1.2" y="1.2" width="31.6" height="31.6" rx="4.8" stroke="#323232" stroke-width="2.4"/>
<path d="M10.5737 22.1758C13.4961 22.1758 15.1807 20.4106 15.1807 17.6641V17.4443C15.1807 16.8291 14.8291 16.4629 14.2432 16.4629H11.46C10.9912 16.4629 10.6689 16.7339 10.6689 17.1807C10.6689 17.6274 10.9912 17.9058 11.46 17.9058H13.335L13.3276 18.0815C13.2983 19.561 12.1924 20.5718 10.5957 20.5718C8.69141 20.5718 7.50488 19.085 7.50488 16.6533C7.50488 14.2729 8.64014 12.8594 10.5444 12.8594C11.6943 12.8594 12.5513 13.3867 13.0786 14.4341C13.313 14.8589 13.5986 15.042 14.0088 15.042C14.5142 15.042 14.8438 14.7124 14.8438 14.2144C14.8438 14.0239 14.8145 13.8335 14.7046 13.5845C14.1187 12.2222 12.5293 11.2554 10.5371 11.2554C7.48291 11.2554 5.57129 13.3208 5.57129 16.6753C5.57129 20.0811 7.49023 22.1758 10.5737 22.1758Z" fill="#323232"/>
<path d="M17.6709 22.1245C18.2642 22.1245 18.6157 21.7656 18.6157 21.1431V12.2881C18.6157 11.6655 18.2642 11.3066 17.6709 11.3066C17.085 11.3066 16.7261 11.6655 16.7261 12.2881V21.1431C16.7261 21.7656 17.085 22.1245 17.6709 22.1245Z" fill="#323232"/>
<path d="M23.999 22.1245C24.5923 22.1245 24.9438 21.7656 24.9438 21.1431V13.0278H27.3608C27.8735 13.0278 28.2251 12.7202 28.2251 12.2295C28.2251 11.7388 27.8809 11.4312 27.3608 11.4312H20.6445C20.1245 11.4312 19.7803 11.7388 19.7803 12.2295C19.7803 12.7202 20.1318 13.0278 20.6445 13.0278H23.0615V21.1431C23.0615 21.7656 23.4131 22.1245 23.999 22.1245Z" fill="#323232"/>
</svg>
